<?xml version="1.0" encoding="UTF-8" standalone="no"?>
<!-- Created with Inkscape (http://www.inkscape.org/) -->

<svg
   xmlns:dc="http://purl.org/dc/elements/1.1/"
   xmlns:cc="http://creativecommons.org/ns#"
   xmlns:rdf="http://www.w3.org/1999/02/22-rdf-syntax-ns#"
   xmlns:svg="http://www.w3.org/2000/svg"
   xmlns="http://www.w3.org/2000/svg"
   xmlns:sodipodi="http://sodipodi.sourceforge.net/DTD/sodipodi-0.dtd"
   xmlns:inkscape="http://www.inkscape.org/namespaces/inkscape"
   width="32"
   height="32"
   viewBox="0 0 32 32.000001"
   id="svg2"
   version="1.1"
   inkscape:version="0.91 r13725"
   sodipodi:docname="brandsvg.svg">
  <defs
     id="defs4" />
  <sodipodi:namedview
     id="base"
     pagecolor="#ffffff"
     bordercolor="#666666"
     borderopacity="1.0"
     inkscape:pageopacity="0.0"
     inkscape:pageshadow="2"
     inkscape:zoom="5.6"
     inkscape:cx="13.193188"
     inkscape:cy="15.430756"
     inkscape:document-units="px"
     inkscape:current-layer="layer1"
     showgrid="false"
     units="px"
     inkscape:window-width="1883"
     inkscape:window-height="1056"
     inkscape:window-x="37"
     inkscape:window-y="24"
     inkscape:window-maximized="1" />
  <metadata
     id="metadata7">
    <rdf:RDF>
      <cc:Work
         rdf:about="">
        <dc:format>image/svg+xml</dc:format>
        <dc:type
           rdf:resource="http://purl.org/dc/dcmitype/StillImage" />
        <dc:title></dc:title>
      </cc:Work>
    </rdf:RDF>
  </metadata>
  <g
     inkscape:label="Camada 1"
     inkscape:groupmode="layer"
     id="layer1"
     transform="translate(0,-1020.3622)">
    <rect
       style="fill:#ff6600;fill-opacity:1;stroke:none;stroke-width:0.26266655;stroke-linecap:round;stroke-miterlimit:4;stroke-dasharray:none;stroke-dashoffset:0;stroke-opacity:1"
       id="rect3369"
       width="31.737333"
       height="31.737333"
       x="0.13133328"
       y="1020.4935"
       ry="15.868667" />
    <g
       id="g3363"
       transform="matrix(1.1753737,0,0,1.1753737,-319.52182,483.51104)"
       style="stroke:none">
      <g
         transform="translate(37.88072,-31.819805)"
         id="text3349"
         style="font-style:italic;font-variant:normal;font-weight:500;font-stretch:normal;font-size:40px;line-height:125%;font-family:'URW Chancery L';-inkscape-font-specification:'URW Chancery L Medium Italic';letter-spacing:0px;word-spacing:0px;fill:#000000;fill-opacity:1;stroke:none;stroke-width:1px;stroke-linecap:butt;stroke-linejoin:miter;stroke-opacity:1">
        <path
           inkscape:connector-curvature="0"
           id="path3358"
           d="m 238.21715,514.10507 c -0.2,-1.28 -0.28,-1.88 -0.28,-2.64 0,-3.28 1.08,-5.16 8.4,-14.76 1.72,-2.28 1.92,-2.6 3.16,-4.48 -2.04,0.16 -4.28,0.2 -7.04,0.2 -4.36,0 -4.4,0 -4.6,-2.36 l -0.6,0 -0.4,1.04 c -0.76,2.08 -0.8,2.12 -1.32,3.72 l 0.12,0.24 c 1.36,0.08 2,0.12 3.04,0.12 2,0 4.56,-0.12 7.84,-0.36 -7.76,9.56 -9.4,11.8 -11.8,16.12 -0.24,0.84 -0.28,1.28 -0.28,2.04 0,0.6 0.04,1.12 0.16,2.24 l 3.6,-1.12 z"
           style="stroke:none" />
      </g>
      <g
         transform="translate(38.371792,-31.819805)"
         id="text3353"
         style="font-style:italic;font-variant:normal;font-weight:500;font-stretch:normal;font-size:40px;line-height:125%;font-family:'URW Chancery L';-inkscape-font-specification:'URW Chancery L Medium Italic';letter-spacing:0px;word-spacing:0px;fill:#000000;fill-opacity:1;stroke:none;stroke-width:1px;stroke-linecap:butt;stroke-linejoin:miter;stroke-opacity:1">
        <path
           inkscape:connector-curvature="0"
           id="path3361"
           d="m 240.50651,514.59744 c 1.36,0.48 2.6,0.72 3.92,0.72 2.36,0 4.72,-1.04 7.24,-3.16 2.56,-2.16 3.84,-4.4 3.84,-6.76 0,-3.2 -2.24,-5.2 -5.76,-5.2 -0.8,0 -1.36,0.08 -2.48,0.32 0.64,-1.36 1,-2.2 1.2,-2.72 0.24,-0.52 0.44,-1 0.64,-1.52 0.04,-0.12 0.28,-0.68 0.4,-0.96 1.28,0.12 1.84,0.16 2.88,0.16 2.64,0 3.64,-0.32 4.88,-1.6 0.88,-0.88 2.12,-2.24 2.8,-3 l 0.36,-1.48 c -2.8,2.6 -4.04,3.2 -6.84,3.2 -1.24,0 -2.96,-0.12 -4.8,-0.36 -0.92,2.88 -1.2,3.6 -4.16,11.04 l 0.4,0.4 c 1.32,-0.72 2.2,-1 3.24,-1 2.36,0 4.16,1.8 4.16,4.16 0,3.72 -2.6,6.4 -6.16,6.4 -1.28,0 -2.24,-0.24 -3.8,-1 l -1.96,2.36 z"
           style="stroke:none" />
      </g>
    </g>
  </g>
</svg>
