<?xml version="1.0" encoding="UTF-8" standalone="no"?>
<!-- Created with Inkscape (http://www.inkscape.org/) -->

<svg
   xmlns:dc="http://purl.org/dc/elements/1.1/"
   xmlns:cc="http://creativecommons.org/ns#"
   xmlns:rdf="http://www.w3.org/1999/02/22-rdf-syntax-ns#"
   xmlns:svg="http://www.w3.org/2000/svg"
   xmlns="http://www.w3.org/2000/svg"
   xmlns:sodipodi="http://sodipodi.sourceforge.net/DTD/sodipodi-0.dtd"
   xmlns:inkscape="http://www.inkscape.org/namespaces/inkscape"
   width="41"
   height="41"
   viewBox="0 0 41.000002 41"
   id="svg2"
   version="1.1"
   inkscape:version="0.91 r13725"
   inkscape:export-filename="/home/capelani/Documentos/www/mesas/mesaOrange.png"
   inkscape:export-xdpi="90"
   inkscape:export-ydpi="90"
   sodipodi:docname="modeloMesa.svg">
  <defs
     id="defs4" />
  <sodipodi:namedview
     id="base"
     pagecolor="#ffffff"
     bordercolor="#666666"
     borderopacity="1.0"
     inkscape:pageopacity="0.0"
     inkscape:pageshadow="2"
     inkscape:zoom="15.839192"
     inkscape:cx="19.058242"
     inkscape:cy="15.535916"
     inkscape:document-units="px"
     inkscape:current-layer="layer1"
     showgrid="false"
     units="px"
     inkscape:window-width="1883"
     inkscape:window-height="1056"
     inkscape:window-x="37"
     inkscape:window-y="24"
     inkscape:window-maximized="1" />
  <metadata
     id="metadata7">
    <rdf:RDF>
      <cc:Work
         rdf:about="">
        <dc:format>image/svg+xml</dc:format>
        <dc:type
           rdf:resource="http://purl.org/dc/dcmitype/StillImage" />
        <dc:title></dc:title>
      </cc:Work>
    </rdf:RDF>
  </metadata>
  <g
     inkscape:label="Camada 1"
     inkscape:groupmode="layer"
     id="layer1"
     transform="translate(0,-1011.3622)">
    <g
       id="g4211"
       transform="matrix(0.37133839,-0.25703378,0.25703375,0.37133839,-123.5778,1016.2315)">
      <path
         inkscape:connector-curvature="0"
         id="path4147"
         d="m 230.06224,171.1385 -2.77792,20.06866 23.48605,0 -2.27284,-20.31044 z"
         style="fill:#782121;stroke:none;stroke-width:1px;stroke-linecap:butt;stroke-linejoin:miter;stroke-opacity:1" />
      <path
         sodipodi:nodetypes="ccccc"
         inkscape:connector-curvature="0"
         id="path4151"
         d="m 230.05772,170.32984 -1.50207,0.0271 c -1.04167,8.00595 -4.2892,17.05325 -4.20297,23.24413 0.003,1.04367 2.48928,1.57121 2.79018,0.54688 2.548,-7.76558 2.20238,-15.89286 3.30357,-23.83929"
         style="fill:#280b0b;stroke:none;stroke-width:1px;stroke-linecap:butt;stroke-linejoin:miter;stroke-opacity:1" />
      <path
         style="fill:#280b0b;stroke:none;stroke-width:1px;stroke-linecap:butt;stroke-linejoin:miter;stroke-opacity:1"
         d="m 248.73083,169.95103 1.50207,0.0271 c 1.04167,8.00595 4.2892,17.05325 4.20297,23.24413 -0.003,1.04367 -2.48928,1.57121 -2.79018,0.54688 -2.548,-7.76558 -2.20238,-15.89286 -3.30357,-23.83929"
         id="path4153"
         inkscape:connector-curvature="0"
         sodipodi:nodetypes="ccccc" />
      <rect
         ry="0.44194174"
         y="191.20715"
         x="227.47372"
         height="0.88388348"
         width="24.622469"
         id="rect4155"
         style="fill:#280b0b;fill-opacity:1;stroke:none;stroke-width:0.30000001;stroke-linecap:round;stroke-miterlimit:4;stroke-dasharray:none;stroke-dashoffset:0;stroke-opacity:1" />
      <path
         sodipodi:nodetypes="ccccccccccccc"
         inkscape:connector-curvature="0"
         id="path4157"
         d="m 230.45683,170.42801 -0.67869,-2.2334 19.31916,-0.0631 -0.72604,2.0203 c 0,0 1.95717,0.0947 1.89404,-0.1578 -0.0631,-0.25254 0.53663,-4.60883 0.53663,-4.60883 l -1.57835,0 -0.0632,1.23113 -19.3823,0.0947 -0.15783,-1.19956 -1.73619,0.0947 0.6629,4.82979 z"
         style="fill:#280b0b;stroke:none;stroke-width:1px;stroke-linecap:butt;stroke-linejoin:miter;stroke-opacity:1" />
      <rect
         ry="0.4017857"
         y="170.57649"
         x="229.46428"
         height="0.8035714"
         width="20.357143"
         id="rect4159"
         style="fill:#280b0b;fill-opacity:1;stroke:none;stroke-width:0.30000001;stroke-linecap:round;stroke-miterlimit:4;stroke-dasharray:none;stroke-dashoffset:0;stroke-opacity:1" />
      <path
         sodipodi:nodetypes="ccccc"
         style="fill:#782121;stroke:none;stroke-width:1px;stroke-linecap:butt;stroke-linejoin:miter;stroke-opacity:1"
         d="m 230.41699,170.66009 -0.7967,-2.54983 19.50858,-0.0546 -0.78918,2.58147 z"
         id="path4161"
         inkscape:connector-curvature="0" />
    </g>
    <g
       id="g4220"
       transform="matrix(0.45161771,0,0,0.45161771,-69.560892,939.20598)">
      <g
         id="g4184" />
    </g>
    <g
       transform="matrix(0,-0.45161771,0.45161771,0,-74.623255,1140.4134)"
       id="g4268">
      <path
         style="fill:#782121;stroke:none;stroke-width:1px;stroke-linecap:butt;stroke-linejoin:miter;stroke-opacity:1"
         d="m 230.06224,171.1385 -2.77792,20.06866 23.48605,0 -2.27284,-20.31044 z"
         id="path4270"
         inkscape:connector-curvature="0" />
      <path
         style="fill:#280b0b;stroke:none;stroke-width:1px;stroke-linecap:butt;stroke-linejoin:miter;stroke-opacity:1"
         d="m 230.05772,170.32984 -1.50207,0.0271 c -1.04167,8.00595 -4.2892,17.05325 -4.20297,23.24413 0.003,1.04367 2.48928,1.57121 2.79018,0.54688 2.548,-7.76558 2.20238,-15.89286 3.30357,-23.83929"
         id="path4272"
         inkscape:connector-curvature="0"
         sodipodi:nodetypes="ccccc" />
      <path
         sodipodi:nodetypes="ccccc"
         inkscape:connector-curvature="0"
         id="path4274"
         d="m 248.73083,169.95103 1.50207,0.0271 c 1.04167,8.00595 4.2892,17.05325 4.20297,23.24413 -0.003,1.04367 -2.48928,1.57121 -2.79018,0.54688 -2.548,-7.76558 -2.20238,-15.89286 -3.30357,-23.83929"
         style="fill:#280b0b;stroke:none;stroke-width:1px;stroke-linecap:butt;stroke-linejoin:miter;stroke-opacity:1" />
      <rect
         style="fill:#280b0b;fill-opacity:1;stroke:none;stroke-width:0.30000001;stroke-linecap:round;stroke-miterlimit:4;stroke-dasharray:none;stroke-dashoffset:0;stroke-opacity:1"
         id="rect4276"
         width="24.622469"
         height="0.88388348"
         x="227.47372"
         y="191.20715"
         ry="0.44194174" />
      <path
         style="fill:#280b0b;stroke:none;stroke-width:1px;stroke-linecap:butt;stroke-linejoin:miter;stroke-opacity:1"
         d="m 230.45683,170.42801 -0.67869,-2.2334 19.31916,-0.0631 -0.72604,2.0203 c 0,0 1.95717,0.0947 1.89404,-0.1578 -0.0631,-0.25254 0.53663,-4.60883 0.53663,-4.60883 l -1.57835,0 -0.0632,1.23113 -19.3823,0.0947 -0.15783,-1.19956 -1.73619,0.0947 0.6629,4.82979 z"
         id="path4278"
         inkscape:connector-curvature="0"
         sodipodi:nodetypes="ccccccccccccc" />
      <rect
         style="fill:#280b0b;fill-opacity:1;stroke:none;stroke-width:0.30000001;stroke-linecap:round;stroke-miterlimit:4;stroke-dasharray:none;stroke-dashoffset:0;stroke-opacity:1"
         id="rect4280"
         width="20.357143"
         height="0.8035714"
         x="229.46428"
         y="170.57649"
         ry="0.4017857" />
      <path
         inkscape:connector-curvature="0"
         id="path4282"
         d="m 230.41699,170.66009 -0.7967,-2.54983 19.50858,-0.0546 -0.78918,2.58147 z"
         style="fill:#782121;stroke:none;stroke-width:1px;stroke-linecap:butt;stroke-linejoin:miter;stroke-opacity:1"
         sodipodi:nodetypes="ccccc" />
    </g>
    <g
       transform="matrix(0.37133839,0.25703378,0.25703375,-0.37133839,-122.14269,1048.9354)"
       id="g4219">
      <path
         style="fill:#782121;stroke:none;stroke-width:1px;stroke-linecap:butt;stroke-linejoin:miter;stroke-opacity:1"
         d="m 230.06224,171.1385 -2.77792,20.06866 23.48605,0 -2.27284,-20.31044 z"
         id="path4221"
         inkscape:connector-curvature="0" />
      <path
         style="fill:#280b0b;stroke:none;stroke-width:1px;stroke-linecap:butt;stroke-linejoin:miter;stroke-opacity:1"
         d="m 230.05772,170.32984 -1.50207,0.0271 c -1.04167,8.00595 -4.2892,17.05325 -4.20297,23.24413 0.003,1.04367 2.48928,1.57121 2.79018,0.54688 2.548,-7.76558 2.20238,-15.89286 3.30357,-23.83929"
         id="path4223"
         inkscape:connector-curvature="0"
         sodipodi:nodetypes="ccccc" />
      <path
         sodipodi:nodetypes="ccccc"
         inkscape:connector-curvature="0"
         id="path4225"
         d="m 248.73083,169.95103 1.50207,0.0271 c 1.04167,8.00595 4.2892,17.05325 4.20297,23.24413 -0.003,1.04367 -2.48928,1.57121 -2.79018,0.54688 -2.548,-7.76558 -2.20238,-15.89286 -3.30357,-23.83929"
         style="fill:#280b0b;stroke:none;stroke-width:1px;stroke-linecap:butt;stroke-linejoin:miter;stroke-opacity:1" />
      <rect
         style="fill:#280b0b;fill-opacity:1;stroke:none;stroke-width:0.30000001;stroke-linecap:round;stroke-miterlimit:4;stroke-dasharray:none;stroke-dashoffset:0;stroke-opacity:1"
         id="rect4227"
         width="24.622469"
         height="0.88388348"
         x="227.47372"
         y="191.20715"
         ry="0.44194174" />
      <path
         style="fill:#280b0b;stroke:none;stroke-width:1px;stroke-linecap:butt;stroke-linejoin:miter;stroke-opacity:1"
         d="m 230.45683,170.42801 -0.67869,-2.2334 19.31916,-0.0631 -0.72604,2.0203 c 0,0 1.95717,0.0947 1.89404,-0.1578 -0.0631,-0.25254 0.53663,-4.60883 0.53663,-4.60883 l -1.57835,0 -0.0632,1.23113 -19.3823,0.0947 -0.15783,-1.19956 -1.73619,0.0947 0.6629,4.82979 z"
         id="path4229"
         inkscape:connector-curvature="0"
         sodipodi:nodetypes="ccccccccccccc" />
      <rect
         style="fill:#280b0b;fill-opacity:1;stroke:none;stroke-width:0.30000001;stroke-linecap:round;stroke-miterlimit:4;stroke-dasharray:none;stroke-dashoffset:0;stroke-opacity:1"
         id="rect4231"
         width="20.357143"
         height="0.8035714"
         x="229.46428"
         y="170.57649"
         ry="0.4017857" />
      <path
         inkscape:connector-curvature="0"
         id="path4233"
         d="m 230.41699,170.66009 -0.7967,-2.54983 19.50858,-0.0546 -0.78918,2.58147 z"
         style="fill:#782121;stroke:none;stroke-width:1px;stroke-linecap:butt;stroke-linejoin:miter;stroke-opacity:1"
         sodipodi:nodetypes="ccccc" />
    </g>
    <g
       id="g4193"
       transform="translate(-19.065542,-0.91638003)">
      <g
         transform="matrix(0,-0.45161771,-0.45161771,0,134.69088,1141.3478)"
         id="g4284">
        <path
           style="fill:#782121;stroke:none;stroke-width:1px;stroke-linecap:butt;stroke-linejoin:miter;stroke-opacity:1"
           d="m 230.06224,171.1385 -2.77792,20.06866 23.48605,0 -2.27284,-20.31044 z"
           id="path4286"
           inkscape:connector-curvature="0" />
        <path
           style="fill:#280b0b;stroke:none;stroke-width:1px;stroke-linecap:butt;stroke-linejoin:miter;stroke-opacity:1"
           d="m 230.05772,170.32984 -1.50207,0.0271 c -1.04167,8.00595 -4.2892,17.05325 -4.20297,23.24413 0.003,1.04367 2.48928,1.57121 2.79018,0.54688 2.548,-7.76558 2.20238,-15.89286 3.30357,-23.83929"
           id="path4288"
           inkscape:connector-curvature="0"
           sodipodi:nodetypes="ccccc" />
        <path
           sodipodi:nodetypes="ccccc"
           inkscape:connector-curvature="0"
           id="path4290"
           d="m 248.73083,169.95103 1.50207,0.0271 c 1.04167,8.00595 4.2892,17.05325 4.20297,23.24413 -0.003,1.04367 -2.48928,1.57121 -2.79018,0.54688 -2.548,-7.76558 -2.20238,-15.89286 -3.30357,-23.83929"
           style="fill:#280b0b;stroke:none;stroke-width:1px;stroke-linecap:butt;stroke-linejoin:miter;stroke-opacity:1" />
        <rect
           style="fill:#280b0b;fill-opacity:1;stroke:none;stroke-width:0.30000001;stroke-linecap:round;stroke-miterlimit:4;stroke-dasharray:none;stroke-dashoffset:0;stroke-opacity:1"
           id="rect4292"
           width="24.622469"
           height="0.88388348"
           x="227.47372"
           y="191.20715"
           ry="0.44194174" />
        <path
           style="fill:#280b0b;stroke:none;stroke-width:1px;stroke-linecap:butt;stroke-linejoin:miter;stroke-opacity:1"
           d="m 230.45683,170.42801 -0.67869,-2.2334 19.31916,-0.0631 -0.72604,2.0203 c 0,0 1.95717,0.0947 1.89404,-0.1578 -0.0631,-0.25254 0.53663,-4.60883 0.53663,-4.60883 l -1.57835,0 -0.0632,1.23113 -19.3823,0.0947 -0.15783,-1.19956 -1.73619,0.0947 0.6629,4.82979 z"
           id="path4294"
           inkscape:connector-curvature="0"
           sodipodi:nodetypes="ccccccccccccc" />
        <rect
           style="fill:#280b0b;fill-opacity:1;stroke:none;stroke-width:0.30000001;stroke-linecap:round;stroke-miterlimit:4;stroke-dasharray:none;stroke-dashoffset:0;stroke-opacity:1"
           id="rect4296"
           width="20.357143"
           height="0.8035714"
           x="229.46428"
           y="170.57649"
           ry="0.4017857" />
        <path
           inkscape:connector-curvature="0"
           id="path4298"
           d="m 230.41699,170.66009 -0.7967,-2.54983 19.50858,-0.0546 -0.78918,2.58147 z"
           style="fill:#782121;stroke:none;stroke-width:1px;stroke-linecap:butt;stroke-linejoin:miter;stroke-opacity:1"
           sodipodi:nodetypes="ccccc" />
      </g>
    </g>
    <g
       transform="matrix(-0.37133839,-0.25703378,-0.25703375,0.37133839,163.96096,1016.1052)"
       id="g4203">
      <path
         style="fill:#782121;stroke:none;stroke-width:1px;stroke-linecap:butt;stroke-linejoin:miter;stroke-opacity:1"
         d="m 230.06224,171.1385 -2.77792,20.06866 23.48605,0 -2.27284,-20.31044 z"
         id="path4205"
         inkscape:connector-curvature="0" />
      <path
         style="fill:#280b0b;stroke:none;stroke-width:1px;stroke-linecap:butt;stroke-linejoin:miter;stroke-opacity:1"
         d="m 230.05772,170.32984 -1.50207,0.0271 c -1.04167,8.00595 -4.2892,17.05325 -4.20297,23.24413 0.003,1.04367 2.48928,1.57121 2.79018,0.54688 2.548,-7.76558 2.20238,-15.89286 3.30357,-23.83929"
         id="path4207"
         inkscape:connector-curvature="0"
         sodipodi:nodetypes="ccccc" />
      <path
         sodipodi:nodetypes="ccccc"
         inkscape:connector-curvature="0"
         id="path4209"
         d="m 248.73083,169.95103 1.50207,0.0271 c 1.04167,8.00595 4.2892,17.05325 4.20297,23.24413 -0.003,1.04367 -2.48928,1.57121 -2.79018,0.54688 -2.548,-7.76558 -2.20238,-15.89286 -3.30357,-23.83929"
         style="fill:#280b0b;stroke:none;stroke-width:1px;stroke-linecap:butt;stroke-linejoin:miter;stroke-opacity:1" />
      <rect
         style="fill:#280b0b;fill-opacity:1;stroke:none;stroke-width:0.30000001;stroke-linecap:round;stroke-miterlimit:4;stroke-dasharray:none;stroke-dashoffset:0;stroke-opacity:1"
         id="rect4211"
         width="24.622469"
         height="0.88388348"
         x="227.47372"
         y="191.20715"
         ry="0.44194174" />
      <path
         style="fill:#280b0b;stroke:none;stroke-width:1px;stroke-linecap:butt;stroke-linejoin:miter;stroke-opacity:1"
         d="m 230.45683,170.42801 -0.67869,-2.2334 19.31916,-0.0631 -0.72604,2.0203 c 0,0 1.95717,0.0947 1.89404,-0.1578 -0.0631,-0.25254 0.53663,-4.60883 0.53663,-4.60883 l -1.57835,0 -0.0632,1.23113 -19.3823,0.0947 -0.15783,-1.19956 -1.73619,0.0947 0.6629,4.82979 z"
         id="path4213"
         inkscape:connector-curvature="0"
         sodipodi:nodetypes="ccccccccccccc" />
      <rect
         style="fill:#280b0b;fill-opacity:1;stroke:none;stroke-width:0.30000001;stroke-linecap:round;stroke-miterlimit:4;stroke-dasharray:none;stroke-dashoffset:0;stroke-opacity:1"
         id="rect4215"
         width="20.357143"
         height="0.8035714"
         x="229.46428"
         y="170.57649"
         ry="0.4017857" />
      <path
         inkscape:connector-curvature="0"
         id="path4217"
         d="m 230.41699,170.66009 -0.7967,-2.54983 19.50858,-0.0546 -0.78918,2.58147 z"
         style="fill:#782121;stroke:none;stroke-width:1px;stroke-linecap:butt;stroke-linejoin:miter;stroke-opacity:1"
         sodipodi:nodetypes="ccccc" />
    </g>
    <g
       id="g4235"
       transform="matrix(-0.37133839,0.25703378,-0.25703375,-0.37133839,164.64864,1048.9354)">
      <path
         inkscape:connector-curvature="0"
         id="path4237"
         d="m 230.06224,171.1385 -2.77792,20.06866 23.48605,0 -2.27284,-20.31044 z"
         style="fill:#782121;stroke:none;stroke-width:1px;stroke-linecap:butt;stroke-linejoin:miter;stroke-opacity:1" />
      <path
         sodipodi:nodetypes="ccccc"
         inkscape:connector-curvature="0"
         id="path4239"
         d="m 230.05772,170.32984 -1.50207,0.0271 c -1.04167,8.00595 -4.2892,17.05325 -4.20297,23.24413 0.003,1.04367 2.48928,1.57121 2.79018,0.54688 2.548,-7.76558 2.20238,-15.89286 3.30357,-23.83929"
         style="fill:#280b0b;stroke:none;stroke-width:1px;stroke-linecap:butt;stroke-linejoin:miter;stroke-opacity:1" />
      <path
         style="fill:#280b0b;stroke:none;stroke-width:1px;stroke-linecap:butt;stroke-linejoin:miter;stroke-opacity:1"
         d="m 248.73083,169.95103 1.50207,0.0271 c 1.04167,8.00595 4.2892,17.05325 4.20297,23.24413 -0.003,1.04367 -2.48928,1.57121 -2.79018,0.54688 -2.548,-7.76558 -2.20238,-15.89286 -3.30357,-23.83929"
         id="path4241"
         inkscape:connector-curvature="0"
         sodipodi:nodetypes="ccccc" />
      <rect
         ry="0.44194174"
         y="191.20715"
         x="227.47372"
         height="0.88388348"
         width="24.622469"
         id="rect4243"
         style="fill:#280b0b;fill-opacity:1;stroke:none;stroke-width:0.30000001;stroke-linecap:round;stroke-miterlimit:4;stroke-dasharray:none;stroke-dashoffset:0;stroke-opacity:1" />
      <path
         sodipodi:nodetypes="ccccccccccccc"
         inkscape:connector-curvature="0"
         id="path4245"
         d="m 230.45683,170.42801 -0.67869,-2.2334 19.31916,-0.0631 -0.72604,2.0203 c 0,0 1.95717,0.0947 1.89404,-0.1578 -0.0631,-0.25254 0.53663,-4.60883 0.53663,-4.60883 l -1.57835,0 -0.0632,1.23113 -19.3823,0.0947 -0.15783,-1.19956 -1.73619,0.0947 0.6629,4.82979 z"
         style="fill:#280b0b;stroke:none;stroke-width:1px;stroke-linecap:butt;stroke-linejoin:miter;stroke-opacity:1" />
      <rect
         ry="0.4017857"
         y="170.57649"
         x="229.46428"
         height="0.8035714"
         width="20.357143"
         id="rect4247"
         style="fill:#280b0b;fill-opacity:1;stroke:none;stroke-width:0.30000001;stroke-linecap:round;stroke-miterlimit:4;stroke-dasharray:none;stroke-dashoffset:0;stroke-opacity:1" />
      <path
         sodipodi:nodetypes="ccccc"
         style="fill:#782121;stroke:none;stroke-width:1px;stroke-linecap:butt;stroke-linejoin:miter;stroke-opacity:1"
         d="m 230.41699,170.66009 -0.7967,-2.54983 19.50858,-0.0546 -0.78918,2.58147 z"
         id="path4249"
         inkscape:connector-curvature="0" />
    </g>
    <circle
       style="fill:#ff6600;fill-opacity:1;stroke:none;stroke-width:0.30000001;stroke-linecap:round;stroke-miterlimit:4;stroke-dasharray:none;stroke-dashoffset:0;stroke-opacity:1"
       id="path4182"
       cx="20.58186"
       cy="1031.9066"
       r="16.667517"
       inkscape:export-xdpi="90"
       inkscape:export-ydpi="90" />
  </g>
</svg>
